<?xml version="1.0" encoding="UTF-8"?>
<svg id="Layer_1" data-name="Layer 1" xmlns="http://www.w3.org/2000/svg" viewBox="0 0 1978.51 992.42">
  <defs>
    <style>
      .cls-1 {
        fill: #c03b2b;
      }

      .cls-2 {
        fill: #2e2e2e;
      }
    </style>
  </defs>
  <path class="cls-2" d="M277.1,951.31c0,12.76-3.49,22.81-10.45,30.14-6.97,7.32-18.01,10.98-33.13,10.98H44.19c-14.74,0-25.78-3.65-33.15-10.98-7.37-7.32-11.04-17.13-11.04-29.44,0-8.96,1.88-16.64,5.67-23.02,3.79-6.38,10.45-12.64,20.01-18.79l15.54-9.23c12.72-8.02,22.48-18.3,29.26-30.81,6.76-12.51,14.32-34.63,22.69-66.3L265.15,165.16c6.36-24.58,8.47-42.18,6.28-52.8s-10.47-19.49-24.79-26.59c-11.16-5.66-19.02-12.04-23.59-19.14-4.59-7.1-6.87-15.84-6.87-26.24,0-12.76,3.67-22.67,11.04-29.77,7.37-7.08,18.62-10.63,33.76-10.63h338.6c15.12,0,26.28,3.55,33.45,10.63,7.16,7.1,10.76,17.01,10.76,29.77,0,10.87-2.4,19.86-7.18,26.96s-11.94,12.99-21.49,17.7c-10.36,4.74-16.55,11.24-18.53,19.51-1.98,8.27-.4,21.62,4.78,40.04l183.35,669.89c7.16,27.9,14.22,48.33,21.19,61.32,6.97,13.01,16.64,22.34,28.98,28,12.72,7.1,21.38,14.05,25.97,20.9,4.57,6.85,6.87,15.71,6.87,26.59,0,12.76-3.69,22.81-11.06,30.14-7.37,7.32-18.6,10.98-33.72,10.98h-289.65c-15.12,0-26.28-3.65-33.45-10.98-7.16-7.32-10.74-17.38-10.74-30.14,0-9.93,2.38-18.07,7.16-24.45,4.76-6.38,11.94-11.94,21.5-16.66l26.88-9.23c10.34-4.72,15.02-11.67,14.03-20.9-1.01-9.21-4.29-23.98-9.86-44.31L355.93,104.91l22.7-17.03-188.13,701.09c-5.98,21.75-9.06,39.35-9.27,52.8-.21,13.48,3.18,24.7,10.15,33.69,6.97,8.99,18.03,17.95,33.15,26.94l24.49,9.21c8.76,4.72,15.63,10.03,20.6,15.94,4.97,5.91,7.46,13.83,7.46,23.76ZM194.09,579.15h351.15l1.79,90.74H191.1l2.99-90.74Z"/>
  <path class="cls-1" d="M1479.25,689.72l-74.65,19.14,201.84-628.06c9.56-30.71,20.81-51.86,33.74-63.43,12.93-11.57,30.75-17.38,53.46-17.38h201.86c15.12,0,26.27,3.55,33.43,10.63,7.16,7.1,10.76,17.25,10.76,30.48,0,10.87-2.4,19.98-7.18,27.3s-11.75,12.86-20.9,16.64l-26.27,9.93c-13.14,5.21-22.01,11.94-26.58,20.21-4.59,8.27-6.28,21.38-5.08,39.35l41.2,690.44c.8,17.03,3.48,28.95,8.07,35.8,4.57,6.85,12.43,12.41,23.59,16.66l25.68,9.91c8.76,3.32,15.33,8.51,19.71,15.61,4.38,7.1,6.57,15.84,6.57,26.22,0,12.31-3.6,22.59-10.76,30.85-7.16,8.27-18.31,12.39-33.43,12.39h-309.95c-15.54,0-26.98-3.65-34.35-10.98-7.37-7.32-11.04-17.38-11.04-30.14,0-10.38,2.19-19.37,6.57-26.94,4.38-7.55,11.73-13.23,22.09-17.03l26.88-9.91c13.14-5.19,21.89-11.57,26.27-19.14,4.38-7.55,6.17-18.67,5.39-33.32l-46.59-722.34,67.48-5.68-247.84,774.8c-9.16,29.79-18.62,48.8-28.37,57.07-9.75,8.29-21.4,12.41-34.92,12.41-9.96,0-18.91-1.42-26.88-4.25-7.96-2.83-15.54-9.46-22.7-19.86-7.16-10.38-14.53-26.94-22.09-49.62l-252.01-746.45,65.1-19.14-48.38,700.37c-1.6,21.27,2.19,37.46,11.35,48.56,9.14,11.12,21.09,20.92,35.83,29.42l22.69,12.04c6.76,3.8,12.03,8.64,15.82,14.54,3.79,5.91,5.68,13.6,5.68,23.04,0,12.76-3.6,23.04-10.76,30.83-7.16,7.8-18.31,11.69-33.43,11.69h-182.74c-15.14,0-26.28-3.65-33.45-10.98-7.16-7.32-10.74-17.38-10.74-30.14s2.89-21.75,8.66-28.35c5.77-6.61,13.42-12.51,22.98-17.72l17.92-7.8c13.14-6.61,23.89-15.59,32.25-26.94,8.34-11.34,13.33-27.65,14.93-48.93l45.39-645.78c1.58-24.58-.02-42.88-4.78-54.94-4.78-12.04-13.94-20.66-27.47-25.87l-25.69-9.21c-9.94-3.77-17.31-9.33-22.09-16.66-4.78-7.32-7.16-16.66-7.16-28,0-27.41,14.93-41.11,44.8-41.11h199.46c21.09,0,38.11,5.21,51.04,15.59,12.93,10.4,24.39,31.2,34.35,62.39l205.44,611.75Z"/>
</svg>